<svg width="1282" height="216" xmlns="http://www.w3.org/2000/svg" xmlns:xlink="http://www.w3.org/1999/xlink" overflow="hidden"><defs><clipPath id="clip0"><rect x="-1" y="258" width="1282" height="216"/></clipPath><clipPath id="clip1"><rect x="0" y="258" width="1280" height="216"/></clipPath><clipPath id="clip2"><rect x="0" y="258" width="1280" height="216"/></clipPath><clipPath id="clip3"><rect x="0" y="39" width="1280" height="645"/></clipPath></defs><g clip-path="url(#clip0)" transform="translate(1 -258)"><g clip-path="url(#clip1)"><g clip-path="url(#clip2)"><g clip-path="url(#clip3)"><path d="M0 0 1280 0 1280 640 0 640Z" stroke="#161615" stroke-width="0.938416" fill="none" transform="matrix(1 0 0 1.00674 0 39.1779)"/><path d="M-8.88889-17.855-8.88889 17.855" stroke="#161615" stroke-width="17.7777" stroke-linecap="round" stroke-miterlimit="10" fill="none" transform="matrix(1 0 0 1.00674 0 361.335)"/><path d="M26.6667-44.426 26.6667 44.426" stroke="#161615" stroke-width="17.7777" stroke-linecap="round" stroke-miterlimit="10" fill="none" transform="matrix(1 0 0 1.00674 0 361.335)"/><path d="M62.2223-33.9779 62.2223 33.9779" stroke="#161615" stroke-width="17.7777" stroke-linecap="round" stroke-miterlimit="10" fill="none" transform="matrix(1 0 0 1.00674 0 361.335)"/><path d="M97.7774-10.5042 97.7774 10.5042" stroke="#161615" stroke-width="17.7777" stroke-linecap="round" stroke-miterlimit="10" fill="none" transform="matrix(1 0 0 1.00674 0 361.335)"/><path d="M133.333-46.6066 133.333 46.6066" stroke="#161615" stroke-width="17.7777" stroke-linecap="round" stroke-miterlimit="10" fill="none" transform="matrix(1 0 0 1.00674 0 361.335)"/><path d="M168.889-50.7068 168.889 50.7068" stroke="#161615" stroke-width="17.7777" stroke-linecap="round" stroke-miterlimit="10" fill="none" transform="matrix(1 0 0 1.00674 0 361.335)"/><path d="M204.444-49.8939 204.444 49.8939" stroke="#161615" stroke-width="17.7777" stroke-linecap="round" stroke-miterlimit="10" fill="none" transform="matrix(1 0 0 1.00674 0 361.335)"/><path d="M240-53.3656 240 53.3656" stroke="#161615" stroke-width="17.7777" stroke-linecap="round" stroke-miterlimit="10" fill="none" transform="matrix(1 0 0 1.00674 0 361.335)"/><path d="M275.556-49.7756 275.556 49.7756" stroke="#161615" stroke-width="17.7777" stroke-linecap="round" stroke-miterlimit="10" fill="none" transform="matrix(1 0 0 1.00674 0 361.335)"/><path d="M311.111-43.4103 311.111 43.4103" stroke="#161615" stroke-width="17.7777" stroke-linecap="round" stroke-miterlimit="10" fill="none" transform="matrix(1 0 0 1.00674 0 361.335)"/><path d="M346.667-43.2572 346.667 43.2572" stroke="#161615" stroke-width="17.7777" stroke-linecap="round" stroke-miterlimit="10" fill="none" transform="matrix(1 0 0 1.00674 0 361.335)"/><path d="M382.223-45.8235 382.223 45.8235" stroke="#161615" stroke-width="17.7777" stroke-linecap="round" stroke-miterlimit="10" fill="none" transform="matrix(1 0 0 1.00674 0 361.335)"/><path d="M417.777-44.7243 417.777 44.7243" stroke="#161615" stroke-width="17.7777" stroke-linecap="round" stroke-miterlimit="10" fill="none" transform="matrix(1 0 0 1.00674 0 361.335)"/><path d="M453.333-48.0511 453.333 48.0511" stroke="#161615" stroke-width="17.7777" stroke-linecap="round" stroke-miterlimit="10" fill="none" transform="matrix(1 0 0 1.00674 0 361.335)"/><path d="M488.889-49.957 488.889 49.957" stroke="#161615" stroke-width="17.7777" stroke-linecap="round" stroke-miterlimit="10" fill="none" transform="matrix(1 0 0 1.00674 0 361.335)"/><path d="M524.444-53.154 524.444 53.154" stroke="#161615" stroke-width="17.7777" stroke-linecap="round" stroke-miterlimit="10" fill="none" transform="matrix(1 0 0 1.00674 0 361.335)"/><path d="M560-42.4481 560 42.4481" stroke="#161615" stroke-width="17.7777" stroke-linecap="round" stroke-miterlimit="10" fill="none" transform="matrix(1 0 0 1.00674 0 361.335)"/><path d="M595.556-25.3344 595.556 25.3344" stroke="#161615" stroke-width="17.7777" stroke-linecap="round" stroke-miterlimit="10" fill="none" transform="matrix(1 0 0 1.00674 0 361.335)"/><path d="M631.111-22.6106 631.111 22.6106" stroke="#161615" stroke-width="17.7777" stroke-linecap="round" stroke-miterlimit="10" fill="none" transform="matrix(1 0 0 1.00674 0 361.335)"/><path d="M666.667-49.7636 666.667 49.7636" stroke="#161615" stroke-width="17.7777" stroke-linecap="round" stroke-miterlimit="10" fill="none" transform="matrix(1 0 0 1.00674 0 361.335)"/><path d="M702.223-53.8075 702.223 53.8075" stroke="#161615" stroke-width="17.7777" stroke-linecap="round" stroke-miterlimit="10" fill="none" transform="matrix(1 0 0 1.00674 0 361.335)"/><path d="M737.777-45.0873 737.777 45.0873" stroke="#161615" stroke-width="17.7777" stroke-linecap="round" stroke-miterlimit="10" fill="none" transform="matrix(1 0 0 1.00674 0 361.335)"/><path d="M773.333-38.6961 773.333 38.6961" stroke="#161615" stroke-width="17.7777" stroke-linecap="round" stroke-miterlimit="10" fill="none" transform="matrix(1 0 0 1.00674 0 361.335)"/><path d="M808.889-31.7045 808.889 31.7045" stroke="#161615" stroke-width="17.7777" stroke-linecap="round" stroke-miterlimit="10" fill="none" transform="matrix(1 0 0 1.00674 0 361.335)"/><path d="M844.444-34.1558 844.444 34.1558" stroke="#161615" stroke-width="17.7777" stroke-linecap="round" stroke-miterlimit="10" fill="none" transform="matrix(1 0 0 1.00674 0 361.335)"/><path d="M880-26.8729 880 26.8729" stroke="#161615" stroke-width="17.7777" stroke-linecap="round" stroke-miterlimit="10" fill="none" transform="matrix(1 0 0 1.00674 0 361.335)"/><path d="M915.556-8.38004 915.556 8.38004" stroke="#161615" stroke-width="17.7777" stroke-linecap="round" stroke-miterlimit="10" fill="none" transform="matrix(1 0 0 1.00674 0 361.335)"/><path d="M951.113-4.78065 951.113 4.78065" stroke="#161615" stroke-width="17.7777" stroke-linecap="round" stroke-miterlimit="10" fill="none" transform="matrix(1 0 0 1.00674 0 361.335)"/><path d="M986.67-4.05684 986.67 4.05684" stroke="#161615" stroke-width="17.7777" stroke-linecap="round" stroke-miterlimit="10" fill="none" transform="matrix(1 0 0 1.00674 0 361.335)"/><path d="M1022.23-5.314 1022.23 5.314" stroke="#161615" stroke-width="17.7777" stroke-linecap="round" stroke-miterlimit="10" fill="none" transform="matrix(1 0 0 1.00674 0 361.335)"/><path d="M1057.77-5.77997 1057.77 5.77997" stroke="#161615" stroke-width="17.7777" stroke-linecap="round" stroke-miterlimit="10" fill="none" transform="matrix(1 0 0 1.00674 0 361.335)"/><path d="M1093.33-4.99531 1093.33 4.99531" stroke="#161615" stroke-width="17.7777" stroke-linecap="round" stroke-miterlimit="10" fill="none" transform="matrix(1 0 0 1.00674 0 361.335)"/><path d="M1128.89-5.23972 1128.89 5.23972" stroke="#161615" stroke-width="17.7777" stroke-linecap="round" stroke-miterlimit="10" fill="none" transform="matrix(1 0 0 1.00674 0 361.335)"/><path d="M1164.44-4.35493 1164.44 4.35493" stroke="#161615" stroke-width="17.7777" stroke-linecap="round" stroke-miterlimit="10" fill="none" transform="matrix(1 0 0 1.00674 0 361.335)"/><path d="M1200-4.22378 1200 4.22378" stroke="#161615" stroke-width="17.7777" stroke-linecap="round" stroke-miterlimit="10" fill="none" transform="matrix(1 0 0 1.00674 0 361.335)"/><path d="M1235.56-3.33024 1235.56 3.33024" stroke="#161615" stroke-width="17.7777" stroke-linecap="round" stroke-miterlimit="10" fill="none" transform="matrix(1 0 0 1.00674 0 361.335)"/></g></g></g></g></svg>